<svg id="Layer_1" data-name="Layer 1" xmlns="http://www.w3.org/2000/svg" viewBox="0 0 186.79 186.78"><defs><style>.cls-1{fill:#fff;}</style></defs><title>bmw</title><path class="cls-1" d="M40.12,40.69a2.92,2.92,0,0,0-3.95-3.41A4.9,4.9,0,0,0,34.32,39l-6.14,7.66s-.47.58-.46.59l1.26,1,3.29,2.63,3.24-4,3.23-4A6.38,6.38,0,0,0,40.12,40.69Z" transform="translate(-2.67 -2.37)"/><path class="cls-1" d="M40.33,57.36l.29.24s.07-.07.07-.08l5.73-7.15,2.08-2.6a3,3,0,0,0,.42-3.05A3,3,0,0,0,46.16,43a3.12,3.12,0,0,0-2.37,1.32l-2.53,3.16L36.07,54l2.7,2.16Z" transform="translate(-2.67 -2.37)"/><path class="cls-1" d="M96.07,2.37a93.39,93.39,0,1,0,93.39,93.39A93.4,93.4,0,0,0,96.07,2.37ZM81,8.2l8.75-1,6.33,18.48,6.32-18.48,8.76,1,1,26.27-6.81-1L104.66,16,98.5,33.5H93.64L87.48,16,86.83,33.5l-6.81,1ZM22,51.44l-2.11-1.7a1.82,1.82,0,0,1-.25-.2l.36-.45,5.45-6.81,6.34-7.92c.41-.51.81-1,1.22-1.52A6.32,6.32,0,0,1,44.12,35.3,6.6,6.6,0,0,1,44,38.8c.16-.12.31-.27.48-.38a7.12,7.12,0,0,1,7-.79,7.06,7.06,0,0,1,3.93,8.42,13.91,13.91,0,0,1-2.89,4.47L46,58.66l-5.43,6.78-.4.5S40,65.82,40,65.8l-2-1.62L30,57.84Zm74,102.69a58.37,58.37,0,1,1,58.37-58.37A58.37,58.37,0,0,1,96.07,154.13Zm55.6-88.55-3.35-5.74,11.54-15.15-17.32,7.94-4.86-4.52,15.79-20.74,4.86,4.51-9.11,12,14.59-6.69,4.25,5.32-9.72,12.77L172,49l3.34,5.74Z" transform="translate(-2.67 -2.37)"/><path class="cls-1" d="M96.07,151.17a56.93,56.93,0,0,0,55.41-55.41H96.07v55.41Z" transform="translate(-2.67 -2.37)"/><path class="cls-1" d="M96.07,40.35A56.93,56.93,0,0,0,40.66,95.76H96.07V40.35Z" transform="translate(-2.67 -2.37)"/></svg>