<svg id="Layer_1" data-name="Layer 1" xmlns="http://www.w3.org/2000/svg" viewBox="0 0 175.75 29.92"><defs><style>.cls-1{fill:#fff;}</style></defs><title>ducati</title><path class="cls-1" d="M31.33,11.83h0A9.92,9.92,0,0,0,21.4,1.89H1.53V5.18H21.4A6.65,6.65,0,0,1,28,11.83h0v9.93h0A6.65,6.65,0,0,1,21.4,28.4H1.53v3.35H21.4a9.94,9.94,0,0,0,9.93-10V11.83Z" transform="translate(-1.53 -1.83)"/><path class="cls-1" d="M21.4,25.11a3.34,3.34,0,0,0,3.35-3.35V11.83A3.33,3.33,0,0,0,21.4,8.54H1.53v3.29H21.4v9.93H1.53v3.35Z" transform="translate(-1.53 -1.83)"/><path class="cls-1" d="M120.91,1.89H111a10,10,0,0,0-10,9.94V31.75h3.35V11.83A6.65,6.65,0,0,1,111,5.18h9.93a6.65,6.65,0,0,1,6.64,6.65h0V31.75h3.29V11.83a10,10,0,0,0-9.93-9.94Z" transform="translate(-1.53 -1.83)"/><path class="cls-1" d="M120.91,8.54H111a3.33,3.33,0,0,0-3.36,3.29h0V31.75H111V25.11h9.93v6.64h3.29V11.83a3.31,3.31,0,0,0-3.29-3.29ZM111,11.83h9.93v9.93H111V11.83Z" transform="translate(-1.53 -1.83)"/><path class="cls-1" d="M77.76,8.54h0a3.31,3.31,0,0,0-3.29,3.29h0v9.93a3.33,3.33,0,0,0,3.29,3.35H97.69V21.76H77.83V11.83H97.69V8.54Z" transform="translate(-1.53 -1.83)"/><path class="cls-1" d="M144.13,8.54h-9.94v3.29h9.94V31.75h3.35V11.83a3.33,3.33,0,0,0-3.35-3.29Z" transform="translate(-1.53 -1.83)"/><polygon class="cls-1" points="165.81 29.86 169.11 29.86 169.11 0 165.81 0 165.81 29.86 165.81 29.86"/><polygon class="cls-1" points="172.46 29.86 175.75 29.86 175.75 0 172.46 0 172.46 29.86 172.46 29.86"/><polygon class="cls-1" points="132.66 3.35 162.46 3.35 162.46 0.06 132.66 0.06 132.66 3.35 132.66 3.35"/><path class="cls-1" d="M61.19,1.89V21.76h0a6.65,6.65,0,0,1-6.64,6.64H44.61A6.65,6.65,0,0,1,38,21.76V1.89H34.68V21.76a9.92,9.92,0,0,0,9.93,9.93h9.94a9.94,9.94,0,0,0,10-9.93h0V1.89Z" transform="translate(-1.53 -1.83)"/><path class="cls-1" d="M54.55,1.89V21.76H44.61V1.89H41.32V21.76h0a3.27,3.27,0,0,0,3.29,3.29h9.94a3.29,3.29,0,0,0,3.35-3.29V1.89Z" transform="translate(-1.53 -1.83)"/><path class="cls-1" d="M77.76,5.18H97.69V1.89H77.76a10,10,0,0,0-9.93,9.94v9.93a10,10,0,0,0,9.93,10H97.69V28.4H77.76a6.6,6.6,0,0,1-6.58-6.64V11.83h0a6.6,6.6,0,0,1,6.58-6.65Z" transform="translate(-1.53 -1.83)"/><path class="cls-1" d="M164.05,8.54h-10a3.31,3.31,0,0,0-3.29,3.29h0V31.75h3.29V11.83h10V8.54Z" transform="translate(-1.53 -1.83)"/></svg>