<?xml version="1.0" encoding="utf-8"?>
<!-- Generator: Adobe Illustrator 23.0.1, SVG Export Plug-In . SVG Version: 6.00 Build 0)  -->
<svg version="1.1"
	 id="svg2" xmlns:cc="http://creativecommons.org/ns#" xmlns:dc="http://purl.org/dc/elements/1.1/" xmlns:rdf="http://www.w3.org/1999/02/22-rdf-syntax-ns#" xmlns:svg="http://www.w3.org/2000/svg"
	 xmlns="http://www.w3.org/2000/svg" xmlns:xlink="http://www.w3.org/1999/xlink" x="0px" y="0px" viewBox="0 0 786.2 124"
	 style="enable-background:new 0 0 786.2 124;" xml:space="preserve">
<style type="text/css">
	.st0{fill-rule:evenodd;clip-rule:evenodd;fill:#FFFFFF;}
</style>
<g id="g4">
	<path id="path6" class="st0" d="M730.4,76.8c-2.1,5.8,4.9,5.4,4.9,5.4l39.5-0.1l-4.7,7.9l-54.1,0c-2.5-0.2-4.8-2.4-6-4.6
		c-1.4-4.4,0.5-8.7,2.3-12.5L725.9,48c0.6-1.2,0.8-3.2,0.1-4.4c-0.9-1.1-2.3-0.9-3.7-0.9c-1.3,0.5-2.7,0.7-3.6,2.3l-16.9,29.5
		l-8.8,15.3c-5.1,0.1-10.6,0.1-16,0l9.4-17.8c3.3-6.5,7.1-12.9,10.1-19.5c-2.9,1.1-5.9,2.7-9.1,3.6l-13.6,24.1
		c-4.6,8.7-13.4,13.2-23.2,12.3c-6.2-0.1-12.1-1.8-15.8-6.7c-2.9-4.4-1.8-10.6,0.3-15.1l15.8-29.2c5.3-7.9,13.4-11,22.5-10.7
		c7,0.6,15.8,0.9,18,8.9c1,2.2,1,5.3,0.4,7.6c1.8-0.4,3.7-1.5,5.4-2.5c4.7-2.7,8.9-7.7,10.5-12.6c6.1,0.2,11.8,0.1,17.9,0
		c-0.4,1.3-1,2.7-1.5,3.9c5.1-3.1,10.8-4.9,17.1-4.5c3.2,0.7,5.9,3.3,6.4,6.5c0,2.8-0.6,5.3-1.8,7.6L730.4,76.8L730.4,76.8z
		 M672.7,47.1c-1.9,0-3.9-1-5.1-2.8c0.8-1.9,1.4-4.4,3.5-5.3c1.2-0.2,2.8-0.4,3.6,0.6C676.1,42.3,673.6,44.9,672.7,47.1z
		 M657.4,78.2c-1.1,1.4-2.5,2.4-4.1,2.5c-0.9-0.2-2,0-2.8-0.5c-1.3-1.2-0.2-2.9,0.1-4.2c4.3-8.7,9-17.3,13.8-25.6
		c2.2,2.6,2.7,2.7,5.5,3.6L657.4,78.2L657.4,78.2z"/>
	<path id="path8" class="st0" d="M641.2,50.8l-15.9-0.3l5.1-8.8c0.1-0.7-0.1-1.4-0.4-2c-0.6-0.8-1.5-0.9-2.3-1.1
		c-1.6,0-2.3,1.6-3.2,2.6l-3.5,6.8c0,1.5,0.3,2.8,1.1,3.9c3.4,4.5,8.1,8.6,10.6,13.5c1.3,5.3-1.9,9.6-4.1,13.9
		c-1.5,2.8-3.5,5.6-6.3,7.7c-8.6,5.1-21.2,7-30.8,2.9c-2.7-1.1-5.1-3.4-7-5.8c-3.9,3.3-7.7,6.9-12.9,7.3c-4.6,0.6-8.3-1.6-11.5-4.7
		c-0.9-1.1-1.5-2.3-2-3.6h-0.3c-4.9,5-10.8,9.3-17.9,7.3c-2.8-1.1-5.3-3.4-6.3-6.3c-4.8,5.9-11.6,8.9-19,7.4c-3.2-1.2-6.1-4.3-7-7.6
		c-1.6-6.9,2.4-12.4,4.5-18.2l17.4-33.2l17.9,0.2h0.4l-20.1,38.1c-0.6,2.3-2.5,4.1-2.5,6.6c0.2,0.8,1.1,1,1.8,1.4
		c2.7-0.1,4.4-2.4,6.4-3.8l2.8-3.5l11.6-24.9c3.6-5.9,8.4-13.9,16-15c5.9-1.1,12,0.1,15.8,4.9l2.4-4.4L591.9,12l19,0
		c-2.2,4-4.7,8-6.9,12l-25.4,48.5c-0.3,1.2-1.3,2.9-0.2,4c1.2,1.5,3.5,1,5,0.4c3.3-2.2,4.8-5.9,7-9.1l18.2,0.1
		c-1.7,3.8-4.3,7.4-5.7,11.4c-0.2,0.7,0.3,1.2,0.8,1.6c6.1,2,7.5-3.9,8.9-8.6c0.2-5.1-5.2-8.2-7.6-12.3c-2.6-3.8-5.3-8.5-3.1-13.3
		c2.5-6.2,7.5-13.4,14.5-15.1c6.6-1.5,14-1.6,21.1-1.2c3.7,0.6,8,2,9.4,6C648.5,42,641.2,50.8,641.2,50.8L641.2,50.8z M574.7,45.3
		l-14.8,29c-0.8,0.8-1.5,1.7-2.6,1.9c-1,0-2-0.2-2.7-0.9c-2.3-3.6,0.8-7.1,1.8-10.3l10-20.3c1.2-2.3,3.4-4,6.1-3.3
		C574.8,42.2,575.1,44.3,574.7,45.3L574.7,45.3z"/>
	<path id="path10" class="st0" d="M535.1,21.5l5-9.5l18.9,0.1l-5.2,9.4L535.1,21.5L535.1,21.5z"/>
	<path id="path12" class="st0" d="M10,13l79.9,0.1L73.6,43.7v0.1c3.9,0.4,7.7-0.1,11.4,0.1l16.7-30.7l18.7,0.2l-40.9,77l-19.1-0.2
		l20.5-38.4c0.1-0.2-11.3-0.4-11.3-0.4L48.9,90.1L29.1,90l37.7-70.5v-0.2L7.3,18.8C8,16.8,9,14.9,10,13L10,13z"/>
	<path id="path14" class="st0" d="M104.5,56c3.2-5.8,6.3-11.6,9.9-17.2c5-6.8,12.4-9.6,20.8-8.4c3,0.6,5.9,1,8.2,3.3l1.1-1.9H161
		l-15.7,30.6c-1.7,4-4.6,7.6-5.1,12.1c0.2,0.8,0.3,1.7,0.9,2.3c1.4,0.8,3.6,0.9,4.9-0.1c2.5-1.7,3.5-4.3,5.1-6.5L170.8,32l18.4-0.2
		c-1,2.2-2.6,4.4-3.3,6.6c5.7-5.1,12.3-8.9,20.4-7.2l-8.4,16.7c-0.7,0.6-0.7,2.4-1.8,2.1c-5-2.1-11.2-1-15.3,2.3
		c-2,1.6-3.7,3.7-5.1,5.8l-15.9,31.6h-18.4c0.8-2,2.2-3.7,2.8-5.8H144c-5,4.5-11.4,9.3-18.2,5.9c-1.7-1.5-3.4-3-4-5.1h-0.4
		c-4.4,3.4-8.8,7.2-14.8,6.3c-4-0.5-8.1-2.3-9.9-6.3c-1.8-3.6-1.1-8.9,0.1-12.5C98.7,66.5,101.9,61.4,104.5,56L104.5,56z
		 M116.5,67.4l11.4-22.4c1-2.1,2.9-3.7,4.8-5.1c1.9-0.7,3.9-0.3,5.4,1c0.8,1.3,0,3-0.3,4.4l-15.3,30.4c-1.5,1.8-3.4,2.8-5.7,2.8
		c-1.4-0.1-2.4-1.4-2.8-2.6C113.9,72.5,115.6,70.2,116.5,67.4L116.5,67.4z"/>
	<path id="path16" class="st0" d="M190.5,70.3l30.4-59.4l17.2,0.1l-31.3,63.3c-0.4,1.2-0.3,2.5,0.3,3.5c2.5,1.9,5-0.7,7.1-1.8
		l2.5-1.9c0.3-3.2,1.4-6.1,2.8-8.9l11.3-22.5c6.1-8.3,15-12.1,24.8-12.4c6.3,0.2,12.9,2.8,15.3,8.9c0.6,5.6-2.3,10-4,14.7
		c-1.7,3.3-3,6.7-4.5,10.1l-0.5,0.2l-24.3-0.1c-0.1-0.1-0.3-0.1-0.4-0.1c-1.7,3.2-3.5,6.5-3.7,10.3c0.1,2.2,1.9,4.1,3.9,5.1
		c3.3,1.2,7,0.1,10.3-0.4c6.5-2.4,13.9-4.5,18-11.1l18.7-36.1c5.6,0.3,11.1-0.1,16.6,0l-20.3,40.9c-0.7,1.5-0.7,3.8,0.1,5.2
		c0.7,0.8,1.7,1,2.6,0.8c1.5-0.7,2.9-2.2,3.7-3.5l21.9-43.4h16.6l-43.6,86.8c-5.5,0.1-11.4,0.1-17,0l15-29.8v-0.1
		c-2.5,0.9-5.3,1.8-8.3,1.9c-2.9,0.3-5.3-0.6-7.1-2.6c-1.9-2.2-2.8-4.9-2.6-8c-6.1,4.5-12.6,7.9-19.7,9.8
		c-5.8,1.5-12.4,0.5-17.5-1.5c-2.9-1.3-5.4-4.1-6.6-7c-6,5.6-12.6,10-21,9.4c-3.3-0.4-6.9-3.3-7.7-6.6
		C187.4,79.3,188.4,74.1,190.5,70.3L190.5,70.3z M248.9,40c1.6-1.6,4-2.7,6.2-1.8c0.7,0.5,0.8,1.3,1,2c-0.1,0.7-0.1,1.1-0.3,1.7
		L248.5,57h-8.2L248.9,40L248.9,40z"/>
	<path id="path18" class="st0" d="M479.2,73.1c-8.8,11.3-21.2,21.3-36.2,17.4c-2.3-0.7-3.1-3.2-3.8-5.2c-0.7,0.3-0.9,1.2-1.7,1.7
		c-4.5,3.7-9.8,6-16,5c-2.9-0.5-5.6-3.2-6.4-6c-1.9-5.8,1.6-11.1,3.4-16.2l13.1-27.5c4.7-7.9,13-11.3,21.8-10.7
		c2.8,0.3,5.3,1.4,7.4,3.1l1.2-2.4l17.3,0.1l-16.5,37.2c-1,2.4-2,4.8-2.1,7.5c0.2,0.7,1,1.4,1.6,1.7c2.7,0.6,4.5-2.1,6.4-3.7
		c6.3-6.1,9.8-13.4,12.7-21c0.7-7.1,1.9-14.5,2.4-21.8l16.8-0.1l-2,26.8l19-26.8l9.1,0.1l-49.4,68.8l-0.1,0.1L479.2,73.1z
		 M442.2,75.4c-1.2,1.8-3.2,3.9-5.7,3.3c-0.8-0.2-1.8-0.6-2-1.5c-0.2-1.4,0.2-2.9,0.8-4.2l4.7-10.6l9.1-19.4
		c0.9-1.7,2.7-2.6,4.4-3.1c1.2-0.1,2.3,0.7,2.9,1.7l0.4,1.5L442.2,75.4L442.2,75.4z"/>
	<path id="path20" class="st0" d="M430.2,33.5l-21.8,43.4c-4.5,7.5-12.3,13-21,13.1L375.8,90l-28.3,0l36.1-67.4l20.5-0.2l-16.2,31.3
		L373,82.9l0,0.1c4.4-0.2,9.1-0.3,12.4-3.5c2.2-2,3.8-4.3,5-6.7l8.3-15.7c5.6-9.5,10.7-19.1,15.1-29.1c0.5-2.3,0.6-5.1-1-6.9
		c-1.4-1.4-3.2-1.7-5.1-1.8l-84.7,0.1l2.8-6.2l90.9,0.1c5.5-0.1,10.3,1.9,13.7,6.3C433.4,23.5,432.5,29.5,430.2,33.5L430.2,33.5z"/>
	<path id="path22" class="st0" d="M330.6,54.6l4-7.9l21.4,0l-4.2,8L330.6,54.6L330.6,54.6z"/>
</g>
</svg>
