<svg id="Layer_1" data-name="Layer 1" xmlns="http://www.w3.org/2000/svg" viewBox="0 0 87.52 86.33"><defs><style>.cls-1{fill:#fff;}</style></defs><title>honda</title><path class="cls-1" d="M72,81.76c.73-3.2-2.78-6.51-5.93-7.13,3-2.32-4.77-3.74-7.07-3.1,1-1.72-2.43-1.77-5.2-1.55,1-2.11-2.91-1.82-4.27-1.82a1.4,1.4,0,0,0,.36-1c-.3-1.49-4.49-1.25-5.61-1.35a2.88,2.88,0,0,0,.52-.74c.69-1.83-4-1.24-5.06-1.48.26-.45.68-1.07.89-1.49,1-.25,10.87-.76,13.69-4.53,3.54-1.26,10.61-1.2,16.26-7.11.45-.37,1.25-2.24,2-2.53.52-.24,8.27-3.49,8.42-8.89-.11-.25-.08-.39.21-.54a10.84,10.84,0,0,0,5.39-7.62,1.86,1.86,0,0,0-.42-1.49c1-.91,4-5.25,2-7.73.73-1.25,2.93-5.37,1.43-7.26-.58-.59-.89-.33-.62-1.25.62-1.76,1-4.48-.21-5.09s-1.93.76-2.74,1.57h-.12c.91-2.84.91-4-.09-5.89-.49-1-1.37-.08-1.78.54C82.11,7.5,62,23,61.38,21.32c-.19-.58.26-.95-.53-1.55-1.21-.6-2,.3-2.59.87-6.13,7-35.3,21.07-42.2,25.08-5.63,3.32-17.59,9.92-12,17,5.24,6.3,15,12.42,20,20.83C30.9,92.16,68.68,91.57,72,81.76ZM62,72.65a8,8,0,0,1,3.27.92.2.2,0,0,1-.06.33,2,2,0,0,1-1.37.33c-1.52-1.09-3.35-.9-5.65-1.25C58.31,72.43,61.44,72.63,62,72.65Zm-4.2-1.31c-.24,1.67-2.86,1.1-4.28,1.1-2.28,0-6.9.09-6.84-.11C47.48,71.05,58.14,69.8,57.81,71.34Zm-5-1.66c-.64.95-3.24.45-6,1.54A13.25,13.25,0,0,0,41,70.57c.26-.95,1.33-1.1,2.38-1.22S53.39,67.82,52.84,69.68Zm-18.11,4h0c-.39-.15-1.37-.61-.66-.87,1.39-.59,11.86-2.8,11.19-.81l-.22.46A62.23,62.23,0,0,0,34.72,73.7ZM20,67.41c-.21-.31-.81-.61-.81-.89a5.61,5.61,0,0,1,3.75-.24c1.74,1.16-2,2.65-2.7,2.8C20.1,68.44,20.5,68.14,20,67.41Zm-4.14-3.89c.76-.54,3.31-1.33,4.7-.82,2.22.74-2.8,3.43-3.92,3.43A2.75,2.75,0,0,0,15.85,63.52Zm-3.21-2.78c.89-.33,6.42-2.5,6.72-1-.26,1.45-4.61,3-6.1,3.21A2.17,2.17,0,0,0,12.64,60.74ZM51.47,39C48.25,41.71,43.88,42.9,40,44.35c-.76.24-1.49.61-2.27.78a3.88,3.88,0,0,0-2.61-.6c-.26,0-.33-.15-.06-.43C36.51,42.67,53.21,35.56,51.47,39Zm-2-1.84c1.84-2,15.43-9.25,17.26-8.34-.51,1.78-2.45,3.21-3.88,4.32a62.18,62.18,0,0,0-10.11,4.4C51.71,36.83,51.06,37.28,49.48,37.19ZM25.73,55.48c0,1.53-4.19,3-5.49,3.05a12.41,12.41,0,0,0-1.92-.43,6.34,6.34,0,0,0,1.4-1.9C20.88,55.67,24.89,54.22,25.73,55.48ZM31,50.69c.88-.24,3.79-1.24,4.16.06a7.24,7.24,0,0,1-2.44,2.33c-.84.83-4.53,2-5.74,2.1a3.1,3.1,0,0,0-1.78-1.07C24.62,53.15,30.3,50.9,31,50.69ZM20.46,60.06c1.19-1.69,4.86-1.51,5.78-.77.91,1.38-3.09,2.81-4.17,2.89a4.19,4.19,0,0,0-2.5-.69C19.57,61.17,20.27,60.42,20.46,60.06Zm2.33,3c.86-.22,4.79-1,4.31.92a4.36,4.36,0,0,1-3,1.79,4.1,4.1,0,0,0-2.82-.66C21.15,64.8,22.56,63.16,22.79,63Zm2,3.69c.63-.21,5.08-.81,3.81.89a4.4,4.4,0,0,1-2.26,1.28c-.64-.63-1.36-.55-2.26-.59C24,67.87,24.59,67.17,24.78,66.73Zm2.59-1.37c.43-.53.9-.84.95-1.46a6.39,6.39,0,0,1,4.26.21.57.57,0,0,1,0,.89,5.51,5.51,0,0,1-3,1.16A4.08,4.08,0,0,0,27.37,65.36Zm.89-2.57c-.06-.55-1.56-1-2.29-1-.26-.4,2-1.76,2.38-1.9,1.44-.59,3.77-1.27,5-.24C33.47,61.42,29.34,62.32,28.26,62.79Zm1.25-4.33a17.29,17.29,0,0,0-1.81.92c-.44.17-.18-.26-.21-.34,0-1.08-1.09-.94-2-1.12-.13,0-.17-.16-.06-.27l2.12-1.39A16.4,16.4,0,0,1,32,54.53c.82-.15,2-.26,2.5.27C34.78,56,30.48,58.14,29.51,58.46Zm4.26-5c-.14,0-.15-.12,0-.18,1.7-.76,2.17-2.57,4-3,2.73-.91,5.41-2.2,8.37-2.32a1.59,1.59,0,0,1,.71.18c.3.6-3,2.83-3.69,3-2.63,1-5.26,2.42-8.09,2.7C34.85,53.57,34.48,53.44,33.77,53.49Zm2.66-3.79-1.8-.5c-.21-.06-.28-.19,0-.29a7.3,7.3,0,0,0,1.31-.78c1-.5,1.25-1.38,2.17-1.84a58.87,58.87,0,0,1,6.55-2.5c1.12-.56,4.52-1.95,5.35-.66C50,45.17,37.94,49.41,36.43,49.7Zm0-3.65c.21,1.15-8.15,5-9.64,5.38A3.54,3.54,0,0,0,24.1,50.3c-.07,0-.06-.08,0-.12C26.4,48.65,34.9,43.69,36.47,46.05Zm-11,6c-.14,1-4.73,3.21-6.56,3.21A12.69,12.69,0,0,0,16.27,55c-.18-.45.73-1.09,1.08-1.47C18.53,52.54,25.24,50.23,25.46,52Zm-7.23,4.08c.14.4-.19.76-.47,1a16.28,16.28,0,0,1-6.84,3,.51.51,0,0,1-.57-.31c0-.41.68-1.1.68-1.7C10.63,56,17.08,55.72,18.23,56.11ZM25.7,69.68c.93.92-1.32,1.9-1.87,2.14-.24-.23-.13-.95-.27-1.37-.11-.21-.69-.85-.63-1A3.84,3.84,0,0,1,25.7,69.68Zm1,.89c.41-.72,4.35-1.1,3.93.15-.3.75-4.45,3.44-5,1.19A2.72,2.72,0,0,0,26.74,70.57Zm2.12-1.82a6.29,6.29,0,0,0,1-1.16c.62-1.23,4.29-1.16,5.67-.44.38.21.94.48.21,1.15-1,1-3.35,1-4.67,1C30.62,69.22,28.86,69.27,28.86,68.75ZM32.67,63c.4-.81,5.81-1,6.33-.86,1.38,1.17-4.93,2.83-4.82,2.53A2.39,2.39,0,0,0,32.67,63Zm.92-1.31c0-.59,1.15-1.12.95-2.11,0-1.17,5.07-2,5.86-1.43C40.4,59.74,34.87,61.38,33.59,61.64Zm3-4.28c-1.18.36-1.94,1-3.3,1-.23,0-.69,0-.8-.24s.48-.57.61-.58c1.84-.37,2.24-2.6,3.73-3.05s7.79-2.45,6.82-1A18.47,18.47,0,0,1,36.62,57.36ZM43.74,52a11.87,11.87,0,0,1,2.55-1.7c1.08-1.08,3.18-1.54,4.59-2.17,2.44-.85,4.79-1.87,7.32-2.5,1.21-.3,2.49-1,3.12-.12-.14,1.12-2.3,2.62-3.27,3.16-3.94,1.63-6.53,2.28-10.48,3.65l-2.4,1.12C45,52.25,45,52.11,43.74,52Zm4.91-4.17c-.52-.77-1.13-.69-1.94-.89-.15,0-.11-.11,0-.15,1.29-.64,4.12-2.43,4.61-3.42,2.25-1,5-1.86,7.29-2.86,1.07-.22,6.6-2.68,7.18-1.51a3.69,3.69,0,0,1-1.58,2C59.45,44.72,54.13,45.81,48.65,47.86Zm15-10.71a19,19,0,0,1-4.34,2.17c-1.41.39-2.76,1.19-4.17,1.61-1.25.42-2.49,1.33-3.72,1.64a7.9,7.9,0,0,1-.92-.51c-.35-.07-.93,0-1-.42A10.19,10.19,0,0,0,52.63,39c1.06-1.07,3-1.24,4.26-2.06A84.75,84.75,0,0,1,65,33.73c1.63-.28,3.14-.72,1.73,1.16A13.26,13.26,0,0,1,63.64,37.15Zm1.46-4.46c1.87-1.12,2.68-2.09,3.08-3.46,3.9-1.77,13.49-7.34,16.34-10.8.14-.11.39-.48.47,0,.29,2.4.09,3.24-1.19,4.7-1.43,2.3-12,8.93-15,9.92-.28-.21-.19-.58-.68-.74A13.79,13.79,0,0,0,65.1,32.69ZM80.72,20.16a124.77,124.77,0,0,1-12.76,8C66.68,27,65.84,27.5,64.15,28a8,8,0,0,0,2.07-3C74.85,21.63,83.59,13.76,85,11.36c.07-.08.23-.41.26,0C85.45,14.34,83.06,18.88,80.72,20.16Zm-29.4,14.6c-.41-1.11-1.64-1.2-2.44-1.6a87.25,87.25,0,0,0,7.46-4.73c2.77-1.52,6.72-3.58,7.73-3.11C66.37,27.42,54.19,31.87,51.32,34.76ZM50,34.65l0,.42c-.48.32-.75.91-1.36,1.22a43.16,43.16,0,0,1-7.95,4c-1.1.27-2.14.86-3.3,1.13-.35-.18-.06-.65-.75-1A5.81,5.81,0,0,0,35,40.13c.17-.43,3.21-1.49,3.75-2,1.94-.64,3.62-1.88,5.59-2.47C45.07,35.12,49.14,33.74,50,34.65ZM35.85,42.12C34,44.25,28.76,46.72,26.1,48a3,3,0,0,0-2.9-1.58c-.06,0-.13-.1-.06-.15a34.18,34.18,0,0,1,8-4.23C31.26,42,36.53,40.31,35.85,42.12ZM24.77,48C25,49.31,19.53,51.4,18.34,52a3.86,3.86,0,0,0-2.26-1.7c-.1,0-.11,0-.09,0C16.43,49.62,24.28,45.09,24.77,48Zm-7.7,4.22c-1.84,1.68-1.25,1.73-2.14,2.44a26.09,26.09,0,0,1-4.2,1.86,2.13,2.13,0,0,0-1.38-1c.43-1.7,4-3.57,5.65-4.66C16,50.46,17.13,52,17.07,52.24Zm-7.17,5c.52,1.44-.78,2.7-2.11,2.94-.82-1.09-.2-2.59.41-3.66C9,55.65,9.6,56.61,9.9,57.21ZM9.48,61a5.09,5.09,0,0,1,2,.25,1.3,1.3,0,0,1-.54,2.5C10,62.65,7.58,61.21,9.48,61Zm6.16,4.48c.1.85-.63,1.19-1.37,1.34A28.66,28.66,0,0,1,12,64.65C13.37,63.84,15,63.83,15.64,65.48Zm-.09,2.35c1.45-1.45,5.33.06,2.95,1.76a2.13,2.13,0,0,1-.89.29c-.74-.55-1.36-1.29-2.06-1.87Zm7.06,3.9c-.28.74-.22.65-1.13,1.3-.43-.32-2.59-1.64-2.59-2.1C19.71,69.56,23.6,70,22.61,71.73Zm3.66,2.17c-.08,1.16-.78,1.47-1.82,1.76-.38-.23-2-1.43-2.08-1.88C23.11,73,26,72.32,26.27,73.9ZM26,75.55c1.95-1.73,3.11-4.67,7.23-1.62a29.22,29.22,0,0,0-7,2.59C25.49,76.36,25.82,75.67,26,75.55Zm6.27-3.38c-.64-.43-1.05-1-.74-1.4,1.13-2.15,9.47-1.34,8.28-.2A27.46,27.46,0,0,1,32.27,72.17ZM48.05,67c.76.21.32.64-.42.74-3.19.67-7.52,1.43-10.92,1.1a10.05,10.05,0,0,0,1.07-1.19C41.09,67,44.71,66.3,48.05,67Zm-6-2.44c.36,0,1.46,0,1.46.47-1.47,1.23-4.3,1.59-6.19,1.7-1-.1-1.9-.46-3-.59L33.91,66l0-.18A20.81,20.81,0,0,1,42,64.53Zm-1.69-3.29a4.47,4.47,0,0,0-1.71-.2s0,0,0,0a7.11,7.11,0,0,0,2.54-2c4.34-.47,10.78-4.08,12.23-2.44C53.38,59.37,41.64,61.38,40.32,61.24ZM46,56.82a32.74,32.74,0,0,1-4.17,1.51c-.55-1.11-.71-1.19-1.33-1.45.13-.52,4-2.07,4.6-2.64,1.1-.47,10.94-4.44,11.65-2.33C56.46,54.11,48,56.08,46,56.82Zm8.78-.31c-.08-.57-.26-1-.83-1.18-.06,0-.07-.1,0-.15a10.13,10.13,0,0,0,3-1.93c1.79-1.59,10.25-2.85,12.91-4.52.07-.07.15-.11.18,0C70.07,52,57.54,56.42,54.77,56.51Zm3.67-5.22a3.11,3.11,0,0,0-1.58-.78A11.16,11.16,0,0,0,59.45,49c1.2-.75,2-2,3.39-2.32,3-.74,12.71-4.55,15.69-7.14.6-.52,1.2-.18,1.15.21C78.88,45.54,63.94,50.16,58.44,51.29ZM81.38,37c-5.71,3.57-12.23,6.06-18.45,8.54a4.74,4.74,0,0,0-1.7-1.46,13.63,13.63,0,0,0,3-1.78A24.59,24.59,0,0,1,67.12,40a172.69,172.69,0,0,0,16.22-8.42c.47-.31,1.53-1.27,2-.6A9.67,9.67,0,0,1,81.38,37Zm5-9.55c-2.51,4.26-16.19,9.84-19.23,11.34-.3-1.22-1-.87-1.84-1.1-.06,0-.07-.1,0-.15a13.63,13.63,0,0,0,3.54-3.31c5.29-1.76,14.37-8.61,18.5-11.67C88.67,23,87,26.62,86.38,27.45ZM88.73,16c.51.47-.64,3.77-1.79,5.3a6.2,6.2,0,0,1-1.66,1.61s0,0,0,0c.45-1.68,1.74-2.92.86-4.82-.09-.43,1.47-1.5,1.82-1.91C88.23,15.93,88.39,15.74,88.73,16Zm-2.41-5.2c.53-.33,2.14-2.51,2.14-.54-.25,2.06-.23,3.8-3.09,6.43C86.15,14.46,86.63,13.2,86.32,10.79ZM60.93,23s0,0,0,0C65.18,22.72,83.56,7.7,85.2,4.7c0-.1.12-.17.19.06a7.71,7.71,0,0,1-2.61,7.66A86.27,86.27,0,0,1,66.14,24c-.3-1.08-4.6.85-7.62,2.2A7.55,7.55,0,0,0,60.93,23ZM23.3,80.47c-.57-.77-1-1.67-1.66-2.46C17.11,72.77,10.42,67.22,6.09,63.22c-2.88-3.36-1.85-7.07,1.15-9.94,14.14-11.41,41-20.73,52.49-32.4.09-.09.26-.18.28.08.26,3.36-4,6.71-8.54,9.26C40.16,36.58,14.32,48.11,7.85,55.27a4.54,4.54,0,0,0-.23,6.55c4,5.31,12.36,10.85,17.11,15.55A3.65,3.65,0,0,0,23.3,80.47Zm24,7.31c-12.47,0-22.65-3.08-22.65-6.85s10.18-6.85,22.65-6.85S70,77.16,70,80.93,59.81,87.78,47.34,87.78Z" transform="translate(-2.61 -3.27)"/><polygon class="cls-1" points="53.17 79.36 53 77.12 48.06 77.12 50.84 73.48 44.59 73.48 41.81 77.12 38.42 77.12 41.2 73.48 34.48 73.48 28.03 81.94 34.75 81.94 36.72 79.36 40.1 79.36 38.14 81.94 44.39 81.94 46.36 79.36 49.24 79.36 47.27 81.94 50.09 81.94 50.91 80.85 51.21 81.94 52.22 81.94 53.81 80.85 52.99 81.94 55.41 81.94 59.07 77.12 55.93 77.12 53.17 79.36"/></svg>