<?xml version="1.0" encoding="UTF-8" standalone="no"?>
<!-- Created with Inkscape (http://www.inkscape.org/) -->

<svg
   width="210mm"
   height="157mm"
   viewBox="0 0 210 157"
   version="1.1"
   id="svg5"
   inkscape:version="1.1.2 (08b2f3d93c, 2022-04-05)"
   sodipodi:docname="mvagusta.svg"
   inkscape:export-filename="/home/vitalii/Insync/vitaliy.ars@gmail.com/Google Drive/Дизайн/WebDevelopment/Projects/Training/Practice/8. bikes/bikes/img/icons/models/mvagusta.png"
   inkscape:export-xdpi="96"
   inkscape:export-ydpi="96"
   xmlns:inkscape="http://www.inkscape.org/namespaces/inkscape"
   xmlns:sodipodi="http://sodipodi.sourceforge.net/DTD/sodipodi-0.dtd"
   xmlns="http://www.w3.org/2000/svg"
   xmlns:svg="http://www.w3.org/2000/svg">
  <sodipodi:namedview
     id="namedview7"
     pagecolor="#505050"
     bordercolor="#ffffff"
     borderopacity="1"
     inkscape:pageshadow="0"
     inkscape:pageopacity="0"
     inkscape:pagecheckerboard="1"
     inkscape:document-units="mm"
     showgrid="false"
     inkscape:zoom="0.69664703"
     inkscape:cx="396.90114"
     inkscape:cy="567.71935"
     inkscape:window-width="1920"
     inkscape:window-height="1016"
     inkscape:window-x="0"
     inkscape:window-y="0"
     inkscape:window-maximized="1"
     inkscape:current-layer="layer1" />
  <defs
     id="defs2" />
  <g
     inkscape:label="Layer 1"
     inkscape:groupmode="layer"
     id="layer1">
    <g
       id="g51"
       transform="matrix(0.39432459,0,0,0.39459987,-9.2135464,49.657485)">
      <g
         id="g980"
         transform="translate(-8.7097115,-123.31051)">
        <path
           id="path9"
           style="fill:#ffffff;stroke-width:1.32107"
           d="m 408.60938,183.19922 c -22.27133,-0.0987 -37.27149,1.74219 -37.27149,1.74219 l -1.34766,16.84375 c -20.8848,2.02123 -55.92187,14.82226 -55.92187,14.82226 l -11.45313,-15.49609 c -16.16858,8.08495 -59.29101,33.01367 -59.29101,33.01367 l 45.82031,79.50391 c 57.94215,-41.09851 131.38086,-39.07813 131.38086,-39.07813 61.30824,0.67111 117.23047,39.75195 117.23047,39.75195 l 43.79102,-77.48046 c -17.52004,-16.16991 -61.3086,-33.01368 -61.3086,-33.01368 l -9.43555,12.80079 c -21.56383,-9.43113 -54.57421,-13.47657 -54.57421,-13.47657 l -1.34766,-16.84375 c -16.92836,-2.27389 -32.90869,-3.03063 -46.27148,-3.08984 z m 13.44726,9.57617 c 7.51629,0.12633 15.30592,0.59094 22.7168,1.60156 l 0.67773,16.8418 c 0,0 40.42486,4.04398 70.06836,17.51758 L 525.625,215.93555 c 0,0 19.54062,6.06447 43.12305,22.23437 l -35.03711,61.31055 c 0,0 -120.60205,-79.50202 -241.875,0 l -33.6875,-61.3125 c 0,0 12.80049,-12.12764 42.44531,-22.90625 l 10.10547,13.47656 c 0,0 19.5392,-12.13017 68.72266,-16.84375 v -16.8457 c 0,0 20.08588,-2.65242 42.63476,-2.27344 z"
           transform="matrix(0.75696187,0,0,0.75696187,-3.1379133,-138.6712)" />
        <path
           d="m 221.34,178.294 26.52,47.428 55.08,-87.208 15.81,183.598 -23.46,11.222 -9.69,-125.972 -38.761,61.711 -18.36,-32.129 -43.859,145.35 -26.01,11.728 z m 132.091,-74.46 9.178,110.67 70.891,-141.781 28.05,-11.22 -116.281,240.21 -13.258,-189.72 z"
           fill="#ffffff"
           id="path17" />
        <path
           fill="#01abdf"
           d="m 318.75,261.423 19.891,17.341 -5.613,-81.6 -18.36,13.257 z"
           id="path19"
           style="fill:#ffffff" />
        <path
           fill="#00abdf"
           d="m 366.69,197.164 h -2.039 v -9.69 l 6.12,0.51 z"
           id="path21"
           style="fill:#ffffff" />
        <path
           fill="#01abdf"
           d="m 256.53,262.442 24.99,-39.778 5.61,63.752 z m -21.931,-69.359 -1.53,-4.079 25.501,11.73 -10.71,16.32 z m 328.44,-4.59 -156.569,-0.51 -21.42,44.37 z M 202.98,226.746 214.199,186.963 33.66,186.453 Z"
           id="path23"
           style="fill:#ffffff" />
        <path
           d="m 215.917,294.991 c 20.296,30.044 54.669,49.798 93.654,49.798 62.378,0 112.948,-50.568 112.948,-112.945 0,-1.543 -0.03,-3.075 -0.093,-4.603 l 38.295,-8.146 c 0.322,4.04 0.486,8.121 0.486,12.242 0,5.162 -0.247,8.533 -0.751,13.561 l -22.214,4.818 c -1.554,11.295 -4.888,23.64 -9.15,33.813 l 17.047,13.795 a 151.51,151.51 0 0 1 -12.961,21.874 l -20.992,-7.703 a 130.68,130.68 0 0 1 -24.095,23.84 l 7.861,20.655 a 151.386,151.386 0 0 1 -22.66,12.996 L 359.585,351.76 a 128.882,128.882 0 0 1 -33.209,8.898 l -4.59,21.842 a 154.212,154.212 0 0 1 -25.485,-0.09 l -3.551,-21.752 a 128.997,128.997 0 0 1 -33.012,-8.824 l -14.928,16.664 c -7.604,-3.6 -22.171,-12.893 -22.403,-13.054 l 7.401,-20.28 c 0,0 -15.611,-15.604 -19.69,-20.703 z M 388.668,151.22 a 113.245,113.245 0 0 0 -28.995,-20.633 l -0.634,-17.574 14.879,-19.03 a 151.648,151.648 0 0 1 22.804,13.241 l -8.392,21.321 a 129.931,129.931 0 0 1 8.916,7.463 z m -61.269,-30.926 a 113.63,113.63 0 0 0 -17.828,-1.4 c -44.707,0 -83.352,25.977 -101.655,63.664 l -18.705,0.326 0.51,-1.53 -16.907,-15.605 a 151.628,151.628 0 0 1 12.332,-21.102 l 21.616,7.803 a 130.664,130.664 0 0 1 23.736,-23.66 l -8.203,-21.47 a 151.335,151.335 0 0 1 22.526,-13.145 l 14.734,17.758 a 128.982,128.982 0 0 1 32.65,-8.83 l 4.109,-22.837 a 153.856,153.856 0 0 1 25.001,-0.123 l 5.057,22.883 c 4.675,0.604 9.268,1.456 13.771,2.542 l -12.21,4.385 z M 158.5,244.548 a 153.93,153.93 0 0 1 -0.565,-13.21 c 0,-3.42 0.111,-6.813 0.335,-10.175 l 38.081,9.658 v 14.79 l -8.312,32.181 c -3.495,-9.239 -6.644,-20.106 -7.954,-30.219 z m 19.733,62.632 a 151.746,151.746 0 0 1 -5.818,-11.093 l 12.643,-11.793 1.529,2.04 z m 231.806,-125.826 1.021,2.55 17.852,-0.51 18.691,-14.925 a 151.43,151.43 0 0 0 -12.715,-22.538 l -9.036,2.272 z"
           fill="#b48b2e"
           id="path25"
           style="fill:#ffffff" />
        <path
           id="path29"
           style="fill:#ffffff;stroke-width:1.32107"
           d="m 387.50781,219.30469 -6.74023,0.67187 1.35156,28.29883 c 0.67243,6.73482 9.43164,8.08594 9.43164,8.08594 l 13.47266,-1.34766 c 6.73878,0 6.74023,-9.43359 6.74023,-9.43359 l -2.02148,-26.27539 -6.73828,0.67383 2.01953,22.90625 c 0,4.71754 -2.01953,5.39062 -2.01953,5.39062 l -10.10547,0.67383 c -2.69499,0 -4.04492,-4.04297 -4.04492,-4.04297 z m 50.42578,0.64062 c -1.45165,0.031 -4.60766,0.53507 -6.6289,4.07422 0,0 -2.6959,6.0644 3.36914,10.7793 l 12.1289,10.10742 c 0,0 7.40725,5.38867 0,5.38867 l -8.08789,-0.67383 c -0.005,0 -3.36985,-0.67121 -4.04492,-6.0625 l -6.74023,-0.67382 c 0,0 0.6752,11.45524 6.74023,12.80273 l 14.14844,1.34766 c 0,0 7.41227,-6.6e-4 8.75976,-5.39063 0,0 -0.67938,-8.08423 -3.37304,-10.10547 l -15.49414,-12.1289 c 0,0 -2.69606,-2.69532 2.02148,-2.69532 l 9.43164,0.67188 c 0,0 2.69532,0.004 2.69532,3.37109 l 6.74023,0.67383 c 0,0 -0.67278,-8.75993 -8.08399,-10.10742 l -12.80273,-1.34766 c 0,0 -0.29541,-0.0416 -0.7793,-0.0312 z m -84.89062,5.8125 c -1.8477,-0.0944 -3.26953,0.28516 -3.26953,0.28516 l -12.79883,3.36719 c -7.40989,2.02123 -4.7168,10.78125 -4.7168,10.78125 l 5.38867,18.1914 c 2.69499,6.06372 8.75977,5.38867 8.75977,5.38867 l 12.12695,-1.34765 c 6.7401,-1.34749 6.74024,-10.10547 6.74024,-10.10547 l -2.69727,-12.12695 -10.10547,2.02148 v 6.73633 l 4.71289,-0.67188 1.34766,3.36914 c 0.67507,2.69499 -2.02148,3.36719 -2.02148,3.36719 l -9.43165,2.02149 c -2.69366,0 -4.04296,-2.69532 -4.04296,-2.69532 l -3.36914,-13.47461 c -1.3475,-4.04247 1.34765,-5.38867 1.34765,-5.38867 l 8.08594,-2.69531 c 3.36873,-0.67242 5.38867,4.04297 5.38867,4.04297 l 6.73828,-2.69727 c -0.84135,-6.73911 -5.10409,-8.21177 -8.18359,-8.36914 z m 122.72461,0.28516 -1.34961,6.73633 9.43555,2.69336 -6.73829,28.29882 5.38868,1.34766 8.08593,-28.29687 10.10547,4.04296 2.02149,-6.73828 z m -172.47852,15.49609 -12.80078,6.73633 6.73633,36.38281 6.06445,-2.69531 -0.67383,-4.7168 16.16993,-9.43359 4.71679,4.71875 5.38867,-3.36914 z m 218.29492,0 -24.25586,28.97071 6.73633,2.69531 3.3711,-3.36914 16.84375,8.75781 v 5.39063 l 6.0625,2.69531 5.38867,-37.73047 z m -218.96875,8.75586 11.45118,13.47461 -13.47266,6.06641 -2.69727,-17.51953 z m 221.66407,0 4.04101,2.69727 -2.69531,17.51758 -12.80078,-6.73829 z"
           transform="matrix(0.75696187,0,0,0.75696187,-3.1379133,-138.6712)" />
      </g>
    </g>
  </g>
</svg>
