<?xml version="1.0" encoding="utf-8"?>
<!-- Generator: Adobe Illustrator 23.0.1, SVG Export Plug-In . SVG Version: 6.00 Build 0)  -->
<svg version="1.1"
	 id="svg11" xmlns:inkscape="http://www.inkscape.org/namespaces/inkscape" xmlns:sodipodi="http://sodipodi.sourceforge.net/DTD/sodipodi-0.dtd" xmlns:svg="http://www.w3.org/2000/svg"
	 xmlns="http://www.w3.org/2000/svg" xmlns:xlink="http://www.w3.org/1999/xlink" x="0px" y="0px" viewBox="0 0 531.8 273.6"
	 style="enable-background:new 0 0 531.8 273.6;" xml:space="preserve">
<style type="text/css">
	.st0{fill:#FFFFFF;}
</style>
<sodipodi:namedview  bordercolor="#666666" borderopacity="1.0" id="namedview13" inkscape:pagecheckerboard="0" inkscape:pageopacity="0.0" inkscape:pageshadow="2" pagecolor="#ffffff">
	</sodipodi:namedview>
<g id="Layer1000" transform="translate(-42.414207,-94.930678)">
	<path id="path2" class="st0" d="M133.6,129.9c-8.6-2.6-17.2-5.1-25.9-7.7C121.4,106,138,94,164.2,95.3c14.1,1.8,25.8,7.5,33.1,20.7
		c51.4-2,110.8,7.5,177.3,28.8c55.7,20.3,109.9,31.2,167.6,21.4c2.8-0.3,4.4,2,0.5,4.1c-41.3,27.4-152.6,5.6-203.7-11.7
		c-52-17.6-93.4-32.1-139.4-29.8c-11,26.9-25.7,45.5-47.1,49.6c-21.9-0.4-34.9-8.9-26.9-25.1c11.8-23.9,38.5-30.5,64.1-35.1
		C173.6,104.3,156.2,98.7,133.6,129.9L133.6,129.9z M191,130.3c-12.6,3.6-24.6,6.6-31.4,14.2c-7,7.8-0.1,16.9,7.7,14.4
		C180.1,154.7,186.3,143.9,191,130.3L191,130.3z"/>
	<path id="path4" class="st0" d="M228,141.8c-17.8,24.6-35.6,49.2-53.5,73.7c-29.2,54.7-62.4,92.6-108.4,77
		c-25.4-13.5-32.4-36.3-9.6-64.4c20.5-25.2,42-25,60.8-8.9c14.8,15.7-12.9,48.5-33.9,23.1c15-4.5,19.2-13.8,10.1-17.5
		c-19-7.7-43.5,21-26.1,35c22.5,18.2,52.4,7.3,68.4-16C167.7,195.6,194.2,159.7,228,141.8L228,141.8z"/>
	<path id="path6" class="st0" d="M196.1,229.7c-11.6,19.1-26.8,30.9-43.8,38.5c-0.7,4.3-3.4,10.1-4.1,14.4
		c19-8.7,37.5-26.3,52.4-47.1c7.2,1.8,7.7,7.6,3.5,13.4c-4.9,7-11.9,12-17.5,18.5c-12,14-15.4,27.4-2,32.4
		c8.5,3.2,18.3-3.2,27.9-10.9l0.7-0.9l1.1-0.2c-4.2,20.7,18.2,15.5,34.5,1.2c0.9-0.2,1.6-0.4,2-0.5c-6.2,19,15.7,15.5,33.7,3.4
		c-4.4,19.9,23,13.9,37.9-4.4c6.5-8,10.8-18,15.9-26.9c9.2-11,14.9-9.3,9,3.8c-7.6,15.1-15.2,24.7-27.2,38.2
		c5.3,0.1,10.5,0.3,15.8,0.4c17.2-34.2,30.8-55.5,38.1-45.9c-2.5,7.7-4.5,14.6-12.6,15c-1.1,0-1.9,2.6-3,2.9
		c1.6,0.8,3.2,0.8,4.7,1.5c-3.9,8.6-8.1,17.2-14.2,25.3c4.5,0,9,0,13.4,0c11.1-15.6,13.2-29.7,27.4-43.7c6.2-6.1,14.6-5.4,13.7,0.3
		c-2,7.4-5.1,14-15.4,15.4c-0.9,1.3-1.8,2.6-2.8,4c1.4,0.5,2.9,1.1,4.3,1.6c-19.9,29.1,9.7,28.4,26.1,15c-8.3,16.1-17.8,32-33.2,47
		c5.7,0.5,11.3,1.1,17,1.6c2.5-4.7,5-9.5,7.5-14.2c2.4-5.2,5-10.2,7.7-15.1c12.7-19.1,25.8-38.1,38.1-57.2
		c10.5-12.4,21.2-7.3,15.8-0.6c-6.2,9.9-11.1,18.1-17.3,28c-10.8,27.2,14.5,20.8,28.8,7.4l0.6-0.4l-3,9.3c4,0.2,7.9,0.4,11.9,0.6
		c10.3-16.1,17.6-35.3,31-48.3c6.9-11.8,18.2-4.2,12.1,2.9c-8.5,11.2-16.5,22.4-20.6,34.1c-4.6,11,4.2,10.9,15,9.2
		c4.9-1.9,9.3-1.1,11.3,2.3c0.2,0.4,0.7,0.6,1,0.9c0.9,3.1,0,7.4-4.7,12.8c-48.2,55.8-254.5,32.5-306.2,25.6
		c-49.4-5.4-96.7-8.7-141.6-9.6c24.2,8.6,48.6,17.2,60.6,33.4c38.8-7,78.5-5.3,120.7,0.6c53.7,7.4,189.6,4.2,237-19.2
		c20.8-10.3,32.9-17.9,43.7-32.1c1.8-2.4,3.7-8,3.5-8.1c2.4-10.2-0.4-16.5-16.2-12.8c-5.3,0.2-10.4-2-6.6-8.6
		c4.7-8.1,8.6-15.7,14.2-23.2c6.3-8.5,15.1-17,12.5-25.5c-3.2-10.7-13.7-7.4-23.6,1.6l-4-2.8c17.3-11,36.6-19,44.6-42.8
		c3.7-10.9-10.4-13.2-20-5.8c-9.6,7.4-32.7,44.5-32.9,44.4c-7.7,11.6-14.5,23.8-22.2,35.4c-1.2-1-3.4-2.7-4.5-3.7
		c-2.6,8.8-7,16.3-14.8,21.1l-3.5,0.7c-8.5,1.9-10-0.2-8-4.3c6.7-13.4,16.8-24.9,22.6-40.1c4.7-12.3-12.7-6.2-26.1-0.4
		c-0.1-2.1-0.1-4.9,1.6-7c-4.2,1.8-10.8,2.3-16,0.5c-0.6,11.6-7.8,22.2-14.7,32.9c-1.4-1.2-2.8-3-3.9-6.3c-2.2,9.9-9,18.4-15.9,24.9
		c-8,7.7-16.9,5.7-8.1-10.1c4.9-8.6,12.5-16.1,15.4-25.5c6.6-20.8-5.9-19.8-24.9-5.5c-2.9-13.8-11-15.4-27.7,3.2
		c-1-18.3-11.7-15.8-22.5-8.3c-7.7,5.3-12.6,14.5-17.4,24.1c-1.7-1.2-2-2.4-3.7-3.6c-0.6,12.8-6.6,23.3-17.7,26.1
		c-2.8,0.7-3.5-5.6-0.9-11c5.4-14.8,12.2-24.6,20.8-38.2c-4-0.3-9.8-0.5-13.8-0.8c-4.3,9.9-9,19.9-13.3,29.8
		c-0.8-3.5-2.4-5.1-4.5-5.6c-3.4,9.5-6.9,19.8-17.5,25.7c0.1,0.2,0.1,0.4,0.1,0.6c-4.6,1-9.2-4-4.7-12.1
		c6.3-14.4,13.6-23.7,22.9-36.7c-3.9-0.6-9.7-1.2-13.7-1.8c-4.9,9.6-10.1,19.2-15,28.8c-0.6-3.6-2.1-5.3-4.1-5.9
		c-3,7.1-6.1,14.8-12.5,20.2c-2.8,1.7-5.4,3.3-8.6,5.1c-5,3.1-13.2-0.9-8.1-10.2c6.2-14.4,13.8-24,22.9-37
		c-3.9-0.6-9.6-1.2-13.5-1.8c-4.8,9.6-10,19.2-14.8,28.8c-0.6-3.6-2-5.3-4.1-5.9c-3.4,8.2-7,17.1-15.4,22.6
		c-8.6,4.5-14.7-0.4-10.1-8.6c5.2-7.3,9.7-12.3,14.8-19.8c6.8-10-1.9-17.9-11.5-20.5c3.2-6.2,4.7-12.5,2.5-18.7
		c-4.1-10.7-18.7-3-17.7,5.6C188.5,220.8,190.2,225.3,196.1,229.7L196.1,229.7z M538.5,221c3.6-8.2,7.5-16.9,13.2-23.6
		c9.3-11.2,12.2-5.8,9,1C557.1,207.5,547.2,214.2,538.5,221z M199.4,225.9c-7.6-5.1-5.9-10.7-2.4-12.6
		C200.9,211.1,203.1,218.5,199.4,225.9z"/>
	<path id="path8" class="st0" d="M272.9,200.2c4.2,0,6.2,4.1,4.5,9.3c0,0,0,0,0,0c-1.6,5.1-6.3,9.3-10.5,9.3c-4.2,0-6.2-4.1-4.5-9.3
		C264,204.3,268.7,200.2,272.9,200.2z"/>
</g>
</svg>
